# xmcd
#
# Track frame offsets:
#	150
#	11263
#	20962
#	36934
#	49237
#	66390
#	78310
#	90616
#	102498
#	115710
#	126560
#	140319
#	155699
#	166590
#	182433
#
# Disc length: 2599 seconds
#
# Revision: 0
# Processed by: cddbd v1.4PL0 Copyright (c) Steve Scherf et al.
# Submitted via: audiograbber 1.82.02
#
DISCID=c50a250f
DTITLE=Various Artist - Triple Value Country Disc Three
DYEAR=1900
DGENRE=
TTITLE0=Roger Miller - King Of The Road
TTITLE1=Johnny Cash - Ballad Of A Teenage Queen
TTITLE2=Johnny Lee - Lookin' For Love
TTITLE3=Jeanne Pruett - Satin Sheets
TTITLE4=Ray Price - For The Good Times
TTITLE5=Johnny Russell - Softly And Tenderly
TTITLE6=Sandy Posey - Single Girl
TTITLE7=Skeeter Davis - End Of The World
TTITLE8=Ferlin Husky - Room Full of Roses
TTITLE9=Bill and Boyd - Put Another Log On The Fire
TTITLE10=Patti Page - Tennessee Waltz
TTITLE11=Melba Montgomery - No Charge
TTITLE12=Johnny Chester - The World's Greatest Mum
TTITLE13=Cash Backman - My Girl Bill
TTITLE14=Lee Conway - I Fought The Law
EXTD=
EXTT0=
EXTT1=
EXTT2=
EXTT3=
EXTT4=
EXTT5=
EXTT6=
EXTT7=
EXTT8=
EXTT9=
EXTT10=
EXTT11=
EXTT12=
EXTT13=
EXTT14=
PLAYORDER=
